<svg xmlns="http://www.w3.org/2000/svg" viewBox="0 0 512 512">
  <defs>
    <linearGradient id="bg" x1="0%" y1="0%" x2="100%" y2="100%">
      <stop offset="0%" style="stop-color:#06B6D4"/>
      <stop offset="100%" style="stop-color:#0891B2"/>
    </linearGradient>
    <linearGradient id="gold" x1="0%" y1="0%" x2="100%" y2="100%">
      <stop offset="0%" style="stop-color:#D4A853"/>
      <stop offset="100%" style="stop-color:#E8C96E"/>
    </linearGradient>
  </defs>
  <rect width="512" height="512" rx="96" fill="url(#bg)"/>
  <!-- Card shape -->
  <rect x="96" y="136" width="320" height="200" rx="20" fill="white" opacity="0.95"/>
  <!-- Accent line -->
  <rect x="96" y="316" width="320" height="4" rx="2" fill="url(#gold)"/>
  <!-- Circle avatar -->
  <circle cx="160" cy="210" r="28" fill="#06B6D4" opacity="0.2"/>
  <text x="160" y="220" text-anchor="middle" fill="#0891B2" font-family="sans-serif" font-size="24" font-weight="bold">e</text>
  <!-- Lines -->
  <rect x="208" y="196" width="160" height="10" rx="5" fill="#0891B2" opacity="0.3"/>
  <rect x="208" y="218" width="120" height="8" rx="4" fill="#0891B2" opacity="0.15"/>
  <!-- QR code symbol -->
  <rect x="344" y="224" width="48" height="48" rx="4" fill="#f5f5f5"/>
  <rect x="350" y="230" width="14" height="14" rx="2" fill="#0891B2"/>
  <rect x="372" y="230" width="14" height="14" rx="2" fill="#0891B2"/>
  <rect x="350" y="252" width="14" height="14" rx="2" fill="#0891B2"/>
  <rect x="372" y="252" width="6" height="6" fill="#0891B2"/>
  <rect x="380" y="260" width="6" height="6" fill="#0891B2"/>
</svg>
